<?xml version="1.0" standalone="no"?>
<!DOCTYPE svg PUBLIC "-//W3C//DTD SVG 20010904//EN"
 "http://www.w3.org/TR/2001/REC-SVG-20010904/DTD/svg10.dtd">
<svg version="1.0" xmlns="http://www.w3.org/2000/svg"
 width="512.000000pt" height="512.000000pt" viewBox="0 0 512.000000 512.000000"
 preserveAspectRatio="xMidYMid meet">
<metadata>
Created by potrace 1.14, written by Peter Selinger 2001-2017
</metadata>
<g transform="translate(0.000000,512.000000) scale(0.100000,-0.100000)"
fill="#000000" stroke="none">
<path d="M2817 4938 c-17 -10 -44 -24 -59 -31 -16 -6 -28 -15 -28 -19 0 -4 -5
-8 -11 -8 -5 0 -34 -11 -62 -24 -65 -29 -118 -46 -154 -48 -7 -1 -13 -4 -13
-7 0 -4 -15 -6 -34 -5 -30 2 -36 -2 -47 -30 -6 -17 -11 -34 -10 -38 0 -5 -4
-8 -10 -8 -5 0 -7 -4 -4 -10 3 -5 1 -10 -4 -10 -6 0 -10 -3 -9 -7 2 -5 -6 -28
-16 -53 -11 -25 -20 -47 -21 -50 -1 -5 -15 -35 -43 -100 -9 -19 -17 -39 -18
-45 -2 -10 -70 -168 -99 -232 -8 -17 -15 -38 -15 -47 0 -9 -4 -16 -10 -16 -5
0 -10 -4 -10 -9 0 -5 -5 -22 -12 -38 -6 -15 -12 -30 -13 -33 -5 -16 -28 -69
-41 -94 -8 -16 -14 -35 -14 -43 0 -7 -4 -13 -10 -13 -5 0 -9 -3 -7 -8 2 -7
-25 -77 -44 -114 -5 -10 -9 -25 -9 -33 0 -8 -4 -15 -10 -15 -5 0 -10 -6 -10
-13 0 -11 -44 -118 -120 -294 -6 -13 -14 -33 -19 -45 -12 -29 -42 -99 -70
-160 -11 -26 -21 -55 -21 -63 0 -8 -4 -15 -10 -15 -5 0 -10 -11 -10 -25 0 -14
-4 -25 -10 -25 -5 0 -10 -9 -10 -20 0 -11 -5 -20 -10 -20 -6 0 -9 -3 -9 -7 1
-5 0 -11 -1 -15 -1 -5 -3 -11 -5 -15 -2 -10 -18 -47 -40 -98 -10 -22 -19 -43
-20 -47 -2 -5 -4 -10 -5 -13 -1 -3 -3 -8 -4 -12 -1 -5 -10 -23 -19 -40 -10
-18 -18 -35 -18 -38 0 -2 -7 -22 -16 -42 -8 -21 -20 -49 -26 -63 -6 -14 -10
-28 -9 -32 1 -5 -3 -8 -10 -8 -6 0 -9 -2 -6 -6 5 -4 -33 -98 -121 -299 -64
-147 -81 -189 -81 -201 0 -8 -5 -14 -11 -14 -5 0 -7 -4 -4 -10 3 -5 1 -10 -5
-10 -6 0 -9 -4 -6 -8 3 -5 -1 -19 -8 -33 -30 -58 -84 -198 -79 -203 4 -3 1 -6
-5 -6 -6 0 -14 -10 -17 -22 -7 -21 -54 -137 -75 -183 -19 -40 -33 -80 -32 -87
1 -5 -3 -8 -8 -8 -6 0 -10 -5 -10 -11 0 -6 -12 -39 -26 -73 -15 -33 -33 -77
-41 -96 -9 -19 -21 -48 -29 -64 -8 -16 -14 -32 -14 -36 0 -4 -10 -29 -22 -56
-12 -27 -23 -51 -23 -54 0 -3 -6 -14 -12 -25 -6 -11 -12 -23 -12 -27 -2 -10
-28 -71 -52 -125 -10 -23 -19 -45 -19 -49 0 -17 -125 -257 -137 -261 -7 -3
-13 -11 -13 -17 0 -33 -161 -180 -203 -185 -4 0 -20 -7 -36 -15 -16 -9 -31
-12 -35 -9 -3 4 -6 1 -6 -5 0 -6 -7 -9 -15 -6 -8 4 -15 1 -15 -6 0 -7 -7 -10
-16 -6 -9 3 -21 3 -27 -1 -7 -4 -21 -8 -32 -9 -93 -10 -115 -13 -124 -19 -6
-3 -11 -2 -11 3 0 6 -14 7 -34 2 -19 -4 -37 -6 -39 -4 -2 3 -10 -9 -17 -25
-15 -37 -19 -139 -6 -166 5 -11 12 -27 16 -35 8 -16 67 -21 87 -6 7 4 13 5 13
0 0 -5 348 -9 792 -9 782 0 793 0 808 20 8 11 14 23 12 27 -1 5 1 8 6 8 8 0 6
77 -3 126 -8 46 -26 56 -107 60 -72 4 -143 11 -143 14 0 1 -9 3 -20 5 -75 14
-89 17 -104 25 -9 5 -31 14 -49 20 -47 18 -102 72 -117 115 -14 43 -10 126 8
137 7 4 8 8 4 8 -4 0 -2 10 5 23 7 12 11 27 10 34 -1 6 2 14 8 18 5 3 10 12
10 20 0 8 5 26 12 42 6 15 11 31 10 36 -1 4 3 7 9 7 5 0 8 4 4 9 -3 5 -1 12 5
16 6 4 8 10 5 15 -3 5 -1 11 5 15 6 4 8 10 5 15 -3 5 -1 11 5 15 6 4 8 11 5
16 -4 5 -2 9 3 9 7 0 30 57 37 90 0 3 6 15 13 26 6 12 8 24 5 28 -3 3 0 6 7 6
7 0 11 3 7 6 -3 4 1 23 9 43 9 20 36 90 60 156 24 66 48 129 53 140 34 78 44
108 44 120 0 8 4 15 9 15 4 0 7 3 6 8 -1 4 4 21 11 37 7 17 14 35 15 40 23 92
76 159 140 176 44 12 1498 20 1546 9 14 -4 25 -11 26 -16 0 -5 4 -17 8 -26 4
-9 8 -22 10 -30 1 -7 5 -19 9 -25 5 -7 10 -21 12 -30 6 -30 65 -205 73 -217 3
-6 7 -15 7 -21 1 -5 4 -17 7 -25 4 -8 21 -58 38 -110 17 -52 35 -104 40 -115
4 -11 14 -41 21 -67 8 -27 18 -48 23 -48 5 0 7 -3 3 -6 -3 -3 14 -62 38 -130
24 -68 41 -124 38 -124 -3 0 -1 -6 5 -12 13 -17 93 -254 99 -296 20 -140 -75
-194 -358 -206 -42 -2 -80 -5 -85 -8 -5 -2 -32 -3 -60 -3 -46 2 -53 -1 -67
-25 -16 -27 -29 -100 -18 -100 3 0 6 -18 6 -40 1 -81 -79 -74 963 -75 510 -1
934 2 943 7 22 10 30 32 35 97 5 65 -10 127 -34 136 -14 5 -99 14 -174 18 -10
1 -18 4 -18 7 0 3 -15 5 -33 6 -41 1 -93 13 -132 29 -25 11 -134 88 -160 113
-29 28 -66 72 -60 72 3 0 -6 18 -20 40 -14 22 -25 46 -25 53 0 7 -4 17 -9 22
-5 6 -14 28 -20 50 -13 44 -20 61 -45 118 -9 21 -14 43 -11 48 4 5 2 9 -3 9
-9 0 -23 35 -27 65 -1 6 -6 21 -12 35 -28 65 -53 134 -53 146 0 8 -4 22 -9 32
-17 33 -42 99 -47 120 -1 8 -6 21 -10 30 -4 9 -9 26 -11 37 -2 10 -8 22 -14
26 -6 3 -10 9 -10 13 2 19 -13 66 -21 66 -5 0 -7 4 -3 10 3 5 1 17 -4 27 -5
10 -18 43 -30 73 -44 121 -183 506 -185 515 -6 21 -26 71 -37 89 -8 14 -8 16
2 10 7 -4 2 10 -11 32 -14 21 -24 41 -23 44 4 9 -10 55 -20 68 -5 6 -6 12 -2
12 4 0 3 6 -2 13 -6 6 -18 37 -28 67 -10 30 -21 59 -25 64 -5 5 -6 15 -3 22 3
8 0 14 -7 14 -6 0 -9 4 -5 9 3 5 1 12 -5 16 -5 3 -10 17 -10 31 0 13 -5 24
-11 24 -5 0 -8 4 -5 8 2 4 -1 21 -8 37 -23 52 -96 260 -96 273 0 6 -5 12 -10
12 -6 0 -9 3 -8 8 3 11 -26 102 -33 102 -3 0 -6 6 -7 13 -1 14 -10 51 -12 55
-2 1 -3 5 -5 10 -1 4 -6 18 -12 32 -13 31 -54 142 -58 155 -2 6 -6 19 -9 30
-4 11 -6 24 -6 29 1 5 -2 12 -7 15 -10 7 -59 151 -55 158 2 3 0 9 -5 12 -7 5
-40 87 -46 116 -2 6 -6 16 -10 22 -5 7 -10 23 -12 35 -3 13 -9 32 -14 43 -5
11 -23 61 -41 110 -17 50 -34 97 -37 105 -4 8 -7 18 -8 23 -2 4 -4 9 -5 12 -1
3 -3 8 -5 13 -1 4 -4 14 -8 22 -16 41 -68 186 -71 195 -2 12 -35 102 -46 130
-5 11 -23 61 -40 110 -17 50 -38 108 -46 130 -9 21 -27 73 -41 115 -14 41 -30
79 -34 85 -5 5 -9 17 -9 27 0 10 -8 19 -17 19 -10 1 -28 3 -41 4 -12 1 -37 -6
-55 -17z m-233 -958 c20 -58 39 -116 42 -130 3 -13 10 -30 15 -37 6 -7 8 -16
5 -22 -3 -5 -3 -11 1 -13 6 -2 94 -244 107 -293 2 -5 6 -17 9 -25 4 -8 20 -58
37 -110 18 -52 35 -104 40 -115 5 -11 27 -76 50 -145 23 -69 45 -134 50 -145
15 -35 34 -100 32 -107 -1 -5 2 -8 7 -8 5 0 12 -17 16 -37 4 -21 11 -44 17
-50 6 -7 8 -13 4 -13 -4 0 0 -13 9 -30 8 -16 15 -31 15 -32 -1 -4 8 -31 26
-81 8 -20 14 -38 13 -40 0 -3 9 -32 26 -78 8 -20 11 -39 8 -43 -4 -3 -2 -6 3
-6 5 0 15 -21 23 -47 7 -27 16 -57 21 -68 4 -11 12 -32 18 -47 9 -23 8 -28 -6
-32 -9 -2 -304 -4 -654 -3 -632 2 -637 2 -665 23 -33 25 -34 51 -5 116 10 24
24 57 30 73 6 17 17 44 23 60 7 17 13 32 14 35 5 13 18 47 27 70 6 14 14 34
19 45 4 11 16 38 25 60 9 22 19 48 20 58 2 10 13 36 24 57 11 22 18 40 16 40
-3 0 39 108 73 185 5 11 26 65 47 120 20 55 41 104 46 110 4 5 8 14 8 21 0 6
8 29 17 50 9 22 18 44 19 50 1 6 9 27 17 45 33 72 47 111 41 120 -3 5 -1 9 5
9 9 0 28 43 20 46 -2 1 4 11 14 21 9 11 14 23 11 26 -4 4 -2 12 3 19 5 7 18
36 28 63 10 28 22 55 27 62 5 7 7 17 3 23 -3 5 -1 10 4 10 6 0 11 8 11 18 0
10 4 22 8 27 5 6 17 33 26 60 10 28 25 66 34 85 17 36 19 42 21 62 2 25 20
-10 55 -112z"/>
</g>
</svg>
